<?xml version="1.0" standalone="no"?>
<!DOCTYPE svg PUBLIC "-//W3C//DTD SVG 20010904//EN" "http://www.w3.org/TR/2001/REC-SVG-20010904/DTD/svg10.dtd">
<svg version="1.0" xmlns="http://www.w3.org/2000/svg" width="100.000000pt" height="100.000000pt" viewBox="0 0 100.000000 100.000000" preserveAspectRatio="xMidYMid meet">

    <g transform="translate(0.000000,100.000000) scale(0.100000,-0.100000)" fill="#ffffff" stroke="none">
        <path d="M0 500 l0 -400 500 0 500 0 0 400 0 400 -500 0 -500 0 0 -400z m960
100 l0 -260 -106 0 -106 0 -71 50 c-66 47 -75 50 -131 50 -57 0 -62 2 -102 41
-42 41 -42 41 -89 31 l-46 -10 -42 64 -42 63 -92 -92 -93 -92 0 208 0 207 460
0 460 0 0 -260z m-706 -85 c39 -59 40 -59 101 -45 38 9 42 7 80 -30 38 -37 45
-40 99 -40 53 0 63 -4 129 -50 l71 -50 113 0 113 0 0 -80 0 -80 -460 0 -460 0
0 127 0 128 87 87 c48 49 88 88 89 88 1 0 18 -25 38 -55z" />
        <path d="M689 711 c-20 -20 -29 -39 -29 -61 0 -43 47 -90 90 -90 43 0 90 47
90 90 0 22 -9 41 -29 61 -40 39 -82 39 -122 0z m95 -27 c31 -30 9 -84 -34 -84
-24 0 -50 26 -50 50 0 10 7 26 16 34 8 9 24 16 34 16 10 0 26 -7 34 -16z" />
    </g>
</svg>