<?xml version="1.0" standalone="no"?>
<!DOCTYPE svg PUBLIC "-//W3C//DTD SVG 20010904//EN"
 "http://www.w3.org/TR/2001/REC-SVG-20010904/DTD/svg10.dtd">
<svg version="1.0" xmlns="http://www.w3.org/2000/svg"
 width="100.000000pt" height="100.000000pt" viewBox="0 0 100.000000 100.000000"
 preserveAspectRatio="xMidYMid meet">

<g transform="translate(0.000000,100.000000) scale(0.100000,-0.100000)"
fill="#ffffff" stroke="none">
<path d="M821 735 c-47 -19 -89 -35 -95 -35 -5 0 -20 10 -34 23 -23 21 -30 22
-281 25 -158 2 -268 -1 -284 -7 -15 -6 -36 -25 -47 -43 -18 -29 -20 -51 -20
-198 0 -147 2 -169 20 -198 11 -18 32 -37 46 -42 14 -6 138 -10 279 -10 l253
0 30 25 c17 14 34 25 39 25 5 0 49 -16 97 -36 49 -19 95 -33 102 -30 22 8 16
530 -6 533 -8 1 -53 -13 -99 -32z m-156 -50 c24 -24 25 -28 25 -183 0 -146 -2
-162 -21 -186 l-20 -26 -249 0 c-322 0 -295 -19 -295 210 0 229 -26 210 292
210 l244 0 24 -25z m235 -183 c0 -115 -2 -211 -6 -214 -3 -3 -41 8 -84 26
l-80 31 3 154 2 155 65 27 c108 46 100 60 100 -179z"/>
<path d="M422 603 c3 -15 15 -18 78 -18 63 0 75 3 78 18 3 15 -6 17 -78 17
-72 0 -81 -2 -78 -17z"/>
</g>
</svg>
