<?xml version="1.0" standalone="no"?>
<!DOCTYPE svg PUBLIC "-//W3C//DTD SVG 20010904//EN"
 "http://www.w3.org/TR/2001/REC-SVG-20010904/DTD/svg10.dtd">
<svg version="1.0" xmlns="http://www.w3.org/2000/svg"
 width="4096.000000pt" height="4096.000000pt" viewBox="0 0 4096.000000 4096.000000"
 preserveAspectRatio="xMidYMid meet">

<g transform="translate(0.000000,4096.000000) scale(0.100000,-0.100000)"
fill="#000000" stroke="none">
<path d="M29088 20997 c-42 -34 -94 -175 -178 -482 -85 -307 -202 -711 -285
-985 -12 -41 -37 -124 -54 -185 -73 -253 -96 -330 -153 -515 -34 -107 -72
-231 -85 -275 -13 -44 -32 -105 -43 -135 -11 -30 -31 -95 -45 -145 -189 -650
-200 -697 -173 -708 26 -9 91 28 219 125 291 221 337 255 394 292 51 33 119
83 280 203 17 13 58 43 93 69 71 51 53 54 157 -21 28 -20 61 -44 75 -53 29
-20 192 -135 289 -205 36 -26 77 -55 91 -64 14 -10 102 -75 196 -144 282 -208
293 -215 333 -190 12 8 10 24 -8 102 -13 52 -33 126 -46 164 -12 39 -30 99
-40 135 -10 36 -42 139 -71 230 -97 303 -182 573 -264 835 -45 143 -85 271
-90 285 -4 14 -22 72 -40 130 -17 58 -53 175 -80 260 -78 249 -106 339 -134
435 -104 347 -231 735 -258 791 -23 48 -58 69 -80 51z"/>
</g>
</svg>
